<svg width="385" height="143" viewBox="0 0 385 143" fill="none" xmlns="http://www.w3.org/2000/svg">
<path d="M333.142 41.0513C333.372 41.2096 333.64 41.3911 333.936 41.5908C333.936 41.5912 333.937 41.5915 333.938 41.5919L334.04 41.6617C334.536 41.9979 335.111 42.3875 335.743 42.8232L335.743 42.8233C337.883 44.2984 340.717 46.3239 343.543 48.6735L333.142 41.0513ZM333.142 41.0513C333.074 41.0054 333.01 40.961 332.951 40.9207C332.933 40.9081 332.915 40.8959 332.898 40.8842L329.444 38.5126L333.46 37.3184C333.689 37.2502 333.966 37.1611 334.287 37.0392L333.142 41.0513ZM356.765 7.07609L357.615 13.7473C358.167 18.0769 360.719 22.8964 364.145 27.1936L364.145 27.1939C367.58 31.5034 371.761 35.1204 375.304 37.0479L379.652 39.4132L374.881 40.7324C373.793 41.0334 372.511 41.7309 371.115 42.7971L371.115 42.7972C369.167 44.2844 367.113 46.3991 365.191 48.848C361.993 52.9233 359.267 57.7849 358.034 61.9294L356.055 68.5805L354.191 61.8962C353.699 60.1339 352.656 58.2708 351.217 56.3801L356.765 7.07609ZM356.765 7.07609L353.831 13.1275M356.765 7.07609L353.831 13.1275M353.831 13.1275C347.909 25.3426 342.599 31.3433 338.836 34.3351M353.831 13.1275L338.836 34.3351M338.836 34.3351C336.873 35.8946 335.317 36.648 334.287 37.039L338.836 34.3351ZM343.543 48.6736C346.377 51.03 349.157 53.6748 351.216 56.3798L343.543 48.6736Z" fill="#FF74B3" stroke="white" stroke-width="4"/>
<mask id="path-2-outside-1_233_12" maskUnits="userSpaceOnUse" x="0" y="33.8528" width="371" height="109" fill="black">
<rect fill="white" y="33.8528" width="371" height="109"/>
<path fill-rule="evenodd" clip-rule="evenodd" d="M70.432 43.4848C69.4933 43.3141 68.0427 43.2288 66.08 43.2288H15.648C11.1253 43.2288 8.05333 44.0395 6.432 45.6608C4.81067 47.1968 4 50.1408 4 54.4928V125.661C4 128.648 4.256 130.824 4.768 132.189C5.792 135.432 9.29067 137.053 15.264 137.053C20.7253 137.053 24.0533 135.901 25.248 133.597C25.9307 132.317 26.3147 131.208 26.4 130.269C26.5707 129.33 26.656 127.837 26.656 125.789V101.597H51.744C54.7307 101.597 56.9067 101.384 58.272 100.957C61.5147 99.8475 63.136 96.3061 63.136 90.3328C63.136 84.8715 62.0267 81.5008 59.808 80.2208C58.528 79.5381 57.376 79.1541 56.352 79.0688C55.4133 78.8981 53.92 78.8128 51.872 78.8128H26.656V65.8848H65.824C67.872 65.8848 69.3653 65.8421 70.304 65.7568C71.328 65.5861 72.48 65.2021 73.76 64.6048C75.04 63.9221 75.936 62.7701 76.448 61.1488C76.96 59.5275 77.216 57.3515 77.216 54.6208C77.216 51.8901 76.96 49.7141 76.448 48.0928C75.936 46.4715 75.04 45.3195 73.76 44.6368C72.5653 43.9541 71.456 43.5701 70.432 43.4848ZM85.628 44.7648C85.5427 45.7035 85.5 47.1541 85.5 49.1168V110.045C85.5 119.176 86.6947 125.832 89.084 130.013C91.0467 133.512 95.3133 135.688 101.884 136.541C110.247 137.565 115.537 137.309 117.756 135.773C119.463 134.578 120.316 131.293 120.316 125.917C120.316 120.968 119.463 117.938 117.756 116.829C116.903 116.232 116.177 115.89 115.58 115.805C114.983 115.634 113.788 115.549 111.996 115.549C110.289 115.549 109.18 115.165 108.668 114.397C108.156 113.544 107.9 111.581 107.9 108.509V49.2448C107.9 47.2821 107.815 45.7888 107.644 44.7648C107.559 43.7408 107.175 42.5888 106.492 41.3088C105.212 39.0048 101.969 37.8528 96.764 37.8528C91.3027 37.8528 87.9747 39.0048 86.78 41.3088C86.1827 42.5888 85.7987 43.7408 85.628 44.7648ZM181.263 69.5968C175.034 69.5968 171.663 71.9861 171.151 76.7648C170.554 75.9115 169.786 75.0581 168.847 74.2048C167.908 73.2661 166.244 72.2848 163.855 71.2608C161.466 70.2368 158.82 69.7248 155.919 69.7248C148.324 69.7248 141.327 73.0955 134.927 79.8368C128.612 86.4928 125.455 94.3008 125.455 103.261C125.455 112.136 128.612 119.944 134.927 126.685C141.242 133.426 148.068 136.797 155.407 136.797C162.831 136.797 168.122 134.536 171.279 130.013C171.535 132.232 172.431 133.938 173.967 135.133C175.588 136.242 178.703 136.797 183.311 136.797C188.004 136.797 190.948 135.688 192.143 133.469C192.74 132.189 193.082 131.08 193.167 130.141C193.338 129.117 193.423 127.624 193.423 125.661V80.8608C193.423 78.8981 193.338 77.4475 193.167 76.5088C193.082 75.4848 192.698 74.3328 192.015 73.0528C191.418 71.7728 190.308 70.8768 188.687 70.3648C187.066 69.8528 184.591 69.5968 181.263 69.5968ZM151.183 111.069C148.964 108.765 147.855 106.205 147.855 103.389C147.855 100.573 148.879 97.9701 150.927 95.5808C153.06 93.1915 155.791 91.9968 159.119 91.9968C162.532 91.9968 165.22 93.1915 167.183 95.5808C169.231 97.9701 170.255 100.573 170.255 103.389C170.255 106.12 169.188 108.637 167.055 110.941C165.007 113.245 162.404 114.397 159.247 114.397C156.09 114.397 153.402 113.288 151.183 111.069ZM201.705 126.173C201.705 128.392 202.516 130.013 204.137 131.037C211.732 135.816 219.625 138.205 227.817 138.205C236.094 138.205 242.964 136.882 248.425 134.237C251.412 132.701 253.716 130.397 255.337 127.325C257.044 124.168 257.897 120.37 257.897 115.933C257.897 111.496 257.044 107.826 255.337 104.925C253.716 101.938 251.668 99.8475 249.193 98.6528C243.902 96.0075 238.441 94.3861 232.809 93.7888C227.006 93.0208 224.105 91.3568 224.105 88.7968C224.105 86.9195 226.622 85.9808 231.657 85.9808C234.9 85.9808 237.886 86.6208 240.617 87.9008C243.433 89.1808 245.353 89.8208 246.377 89.8208C248.34 89.8208 250.26 88.3275 252.137 85.3408C254.014 82.3541 254.953 79.8368 254.953 77.7888C254.953 75.7408 253.46 74.0341 250.473 72.6688C244.073 69.7675 237.844 68.3168 231.785 68.3168C213.268 68.3168 204.009 75.0581 204.009 88.5408C204.009 93.0635 204.82 96.9888 206.441 100.317C208.062 103.56 210.11 105.949 212.585 107.485C217.876 110.728 223.209 112.733 228.585 113.501C234.302 114.269 237.161 115.464 237.161 117.085C237.161 119.133 234.558 120.157 229.353 120.157C226.452 120.157 223.209 119.133 219.625 117.085C216.041 114.952 213.182 113.885 211.049 113.885C209.001 113.885 207.508 114.61 206.569 116.061C203.326 120.584 201.705 123.954 201.705 126.173ZM324.874 79.5808C319.242 73.0955 312.159 69.8528 303.626 69.8528C297.909 69.8528 292.917 72.4555 288.65 77.6608V49.3728C288.65 47.4101 288.565 45.9595 288.394 45.0208C288.309 43.9968 287.925 42.8448 287.242 41.5648C286.133 39.2608 282.89 38.1088 277.514 38.1088C272.053 38.1088 268.725 39.2608 267.53 41.5648C266.933 42.7595 266.549 43.8688 266.378 44.8928C266.293 45.8315 266.25 47.2821 266.25 49.2448V125.789C266.25 127.837 266.293 129.33 266.378 130.269C266.549 131.208 266.933 132.317 267.53 133.597C268.725 135.901 272.01 137.053 277.386 137.053C282.847 137.053 286.133 135.944 287.242 133.725C287.925 132.445 288.309 131.336 288.394 130.397C288.565 129.373 288.65 127.88 288.65 125.917V101.085C288.991 98.7808 290.314 96.7328 292.618 94.9408C294.922 93.0635 297.567 92.1248 300.554 92.1248C303.626 92.1248 306.143 93.1061 308.106 95.0688C310.069 97.0315 311.05 99.7621 311.05 103.261V125.661C311.05 127.709 311.093 129.245 311.178 130.269C311.349 131.293 311.775 132.445 312.458 133.725C313.738 135.944 316.981 137.053 322.186 137.053C327.647 137.053 330.933 135.944 332.042 133.725C332.725 132.445 333.109 131.336 333.194 130.397C333.365 129.373 333.45 127.88 333.45 125.917V103.389C333.45 94.0021 330.591 86.0661 324.874 79.5808ZM343.878 76.5088C343.793 77.4475 343.75 78.8981 343.75 80.8608V125.789C343.75 127.837 343.793 129.33 343.878 130.269C344.049 131.208 344.433 132.317 345.03 133.597C346.225 135.901 349.51 137.053 354.886 137.053C360.347 137.053 363.633 135.944 364.742 133.725C365.425 132.445 365.809 131.336 365.894 130.397C366.065 129.373 366.15 127.88 366.15 125.917V81.1168C366.15 79.4955 366.107 78.2581 366.022 77.4048C365.937 74.9301 365.169 73.0955 363.718 71.9008C362.011 70.4501 359.11 69.7248 355.014 69.7248C349.553 69.7248 346.225 70.8341 345.03 73.0528C344.433 74.3328 344.049 75.4848 343.878 76.5088Z"/>
</mask>
<path fill-rule="evenodd" clip-rule="evenodd" d="M70.432 43.4848C69.4933 43.3141 68.0427 43.2288 66.08 43.2288H15.648C11.1253 43.2288 8.05333 44.0395 6.432 45.6608C4.81067 47.1968 4 50.1408 4 54.4928V125.661C4 128.648 4.256 130.824 4.768 132.189C5.792 135.432 9.29067 137.053 15.264 137.053C20.7253 137.053 24.0533 135.901 25.248 133.597C25.9307 132.317 26.3147 131.208 26.4 130.269C26.5707 129.33 26.656 127.837 26.656 125.789V101.597H51.744C54.7307 101.597 56.9067 101.384 58.272 100.957C61.5147 99.8475 63.136 96.3061 63.136 90.3328C63.136 84.8715 62.0267 81.5008 59.808 80.2208C58.528 79.5381 57.376 79.1541 56.352 79.0688C55.4133 78.8981 53.92 78.8128 51.872 78.8128H26.656V65.8848H65.824C67.872 65.8848 69.3653 65.8421 70.304 65.7568C71.328 65.5861 72.48 65.2021 73.76 64.6048C75.04 63.9221 75.936 62.7701 76.448 61.1488C76.96 59.5275 77.216 57.3515 77.216 54.6208C77.216 51.8901 76.96 49.7141 76.448 48.0928C75.936 46.4715 75.04 45.3195 73.76 44.6368C72.5653 43.9541 71.456 43.5701 70.432 43.4848ZM85.628 44.7648C85.5427 45.7035 85.5 47.1541 85.5 49.1168V110.045C85.5 119.176 86.6947 125.832 89.084 130.013C91.0467 133.512 95.3133 135.688 101.884 136.541C110.247 137.565 115.537 137.309 117.756 135.773C119.463 134.578 120.316 131.293 120.316 125.917C120.316 120.968 119.463 117.938 117.756 116.829C116.903 116.232 116.177 115.89 115.58 115.805C114.983 115.634 113.788 115.549 111.996 115.549C110.289 115.549 109.18 115.165 108.668 114.397C108.156 113.544 107.9 111.581 107.9 108.509V49.2448C107.9 47.2821 107.815 45.7888 107.644 44.7648C107.559 43.7408 107.175 42.5888 106.492 41.3088C105.212 39.0048 101.969 37.8528 96.764 37.8528C91.3027 37.8528 87.9747 39.0048 86.78 41.3088C86.1827 42.5888 85.7987 43.7408 85.628 44.7648ZM181.263 69.5968C175.034 69.5968 171.663 71.9861 171.151 76.7648C170.554 75.9115 169.786 75.0581 168.847 74.2048C167.908 73.2661 166.244 72.2848 163.855 71.2608C161.466 70.2368 158.82 69.7248 155.919 69.7248C148.324 69.7248 141.327 73.0955 134.927 79.8368C128.612 86.4928 125.455 94.3008 125.455 103.261C125.455 112.136 128.612 119.944 134.927 126.685C141.242 133.426 148.068 136.797 155.407 136.797C162.831 136.797 168.122 134.536 171.279 130.013C171.535 132.232 172.431 133.938 173.967 135.133C175.588 136.242 178.703 136.797 183.311 136.797C188.004 136.797 190.948 135.688 192.143 133.469C192.74 132.189 193.082 131.08 193.167 130.141C193.338 129.117 193.423 127.624 193.423 125.661V80.8608C193.423 78.8981 193.338 77.4475 193.167 76.5088C193.082 75.4848 192.698 74.3328 192.015 73.0528C191.418 71.7728 190.308 70.8768 188.687 70.3648C187.066 69.8528 184.591 69.5968 181.263 69.5968ZM151.183 111.069C148.964 108.765 147.855 106.205 147.855 103.389C147.855 100.573 148.879 97.9701 150.927 95.5808C153.06 93.1915 155.791 91.9968 159.119 91.9968C162.532 91.9968 165.22 93.1915 167.183 95.5808C169.231 97.9701 170.255 100.573 170.255 103.389C170.255 106.12 169.188 108.637 167.055 110.941C165.007 113.245 162.404 114.397 159.247 114.397C156.09 114.397 153.402 113.288 151.183 111.069ZM201.705 126.173C201.705 128.392 202.516 130.013 204.137 131.037C211.732 135.816 219.625 138.205 227.817 138.205C236.094 138.205 242.964 136.882 248.425 134.237C251.412 132.701 253.716 130.397 255.337 127.325C257.044 124.168 257.897 120.37 257.897 115.933C257.897 111.496 257.044 107.826 255.337 104.925C253.716 101.938 251.668 99.8475 249.193 98.6528C243.902 96.0075 238.441 94.3861 232.809 93.7888C227.006 93.0208 224.105 91.3568 224.105 88.7968C224.105 86.9195 226.622 85.9808 231.657 85.9808C234.9 85.9808 237.886 86.6208 240.617 87.9008C243.433 89.1808 245.353 89.8208 246.377 89.8208C248.34 89.8208 250.26 88.3275 252.137 85.3408C254.014 82.3541 254.953 79.8368 254.953 77.7888C254.953 75.7408 253.46 74.0341 250.473 72.6688C244.073 69.7675 237.844 68.3168 231.785 68.3168C213.268 68.3168 204.009 75.0581 204.009 88.5408C204.009 93.0635 204.82 96.9888 206.441 100.317C208.062 103.56 210.11 105.949 212.585 107.485C217.876 110.728 223.209 112.733 228.585 113.501C234.302 114.269 237.161 115.464 237.161 117.085C237.161 119.133 234.558 120.157 229.353 120.157C226.452 120.157 223.209 119.133 219.625 117.085C216.041 114.952 213.182 113.885 211.049 113.885C209.001 113.885 207.508 114.61 206.569 116.061C203.326 120.584 201.705 123.954 201.705 126.173ZM324.874 79.5808C319.242 73.0955 312.159 69.8528 303.626 69.8528C297.909 69.8528 292.917 72.4555 288.65 77.6608V49.3728C288.65 47.4101 288.565 45.9595 288.394 45.0208C288.309 43.9968 287.925 42.8448 287.242 41.5648C286.133 39.2608 282.89 38.1088 277.514 38.1088C272.053 38.1088 268.725 39.2608 267.53 41.5648C266.933 42.7595 266.549 43.8688 266.378 44.8928C266.293 45.8315 266.25 47.2821 266.25 49.2448V125.789C266.25 127.837 266.293 129.33 266.378 130.269C266.549 131.208 266.933 132.317 267.53 133.597C268.725 135.901 272.01 137.053 277.386 137.053C282.847 137.053 286.133 135.944 287.242 133.725C287.925 132.445 288.309 131.336 288.394 130.397C288.565 129.373 288.65 127.88 288.65 125.917V101.085C288.991 98.7808 290.314 96.7328 292.618 94.9408C294.922 93.0635 297.567 92.1248 300.554 92.1248C303.626 92.1248 306.143 93.1061 308.106 95.0688C310.069 97.0315 311.05 99.7621 311.05 103.261V125.661C311.05 127.709 311.093 129.245 311.178 130.269C311.349 131.293 311.775 132.445 312.458 133.725C313.738 135.944 316.981 137.053 322.186 137.053C327.647 137.053 330.933 135.944 332.042 133.725C332.725 132.445 333.109 131.336 333.194 130.397C333.365 129.373 333.45 127.88 333.45 125.917V103.389C333.45 94.0021 330.591 86.0661 324.874 79.5808ZM343.878 76.5088C343.793 77.4475 343.75 78.8981 343.75 80.8608V125.789C343.75 127.837 343.793 129.33 343.878 130.269C344.049 131.208 344.433 132.317 345.03 133.597C346.225 135.901 349.51 137.053 354.886 137.053C360.347 137.053 363.633 135.944 364.742 133.725C365.425 132.445 365.809 131.336 365.894 130.397C366.065 129.373 366.15 127.88 366.15 125.917V81.1168C366.15 79.4955 366.107 78.2581 366.022 77.4048C365.937 74.9301 365.169 73.0955 363.718 71.9008C362.011 70.4501 359.11 69.7248 355.014 69.7248C349.553 69.7248 346.225 70.8341 345.03 73.0528C344.433 74.3328 344.049 75.4848 343.878 76.5088Z" fill="#0E0A1D"/>
<path fill-rule="evenodd" clip-rule="evenodd" d="M70.432 43.4848C69.4933 43.3141 68.0427 43.2288 66.08 43.2288H15.648C11.1253 43.2288 8.05333 44.0395 6.432 45.6608C4.81067 47.1968 4 50.1408 4 54.4928V125.661C4 128.648 4.256 130.824 4.768 132.189C5.792 135.432 9.29067 137.053 15.264 137.053C20.7253 137.053 24.0533 135.901 25.248 133.597C25.9307 132.317 26.3147 131.208 26.4 130.269C26.5707 129.33 26.656 127.837 26.656 125.789V101.597H51.744C54.7307 101.597 56.9067 101.384 58.272 100.957C61.5147 99.8475 63.136 96.3061 63.136 90.3328C63.136 84.8715 62.0267 81.5008 59.808 80.2208C58.528 79.5381 57.376 79.1541 56.352 79.0688C55.4133 78.8981 53.92 78.8128 51.872 78.8128H26.656V65.8848H65.824C67.872 65.8848 69.3653 65.8421 70.304 65.7568C71.328 65.5861 72.48 65.2021 73.76 64.6048C75.04 63.9221 75.936 62.7701 76.448 61.1488C76.96 59.5275 77.216 57.3515 77.216 54.6208C77.216 51.8901 76.96 49.7141 76.448 48.0928C75.936 46.4715 75.04 45.3195 73.76 44.6368C72.5653 43.9541 71.456 43.5701 70.432 43.4848ZM85.628 44.7648C85.5427 45.7035 85.5 47.1541 85.5 49.1168V110.045C85.5 119.176 86.6947 125.832 89.084 130.013C91.0467 133.512 95.3133 135.688 101.884 136.541C110.247 137.565 115.537 137.309 117.756 135.773C119.463 134.578 120.316 131.293 120.316 125.917C120.316 120.968 119.463 117.938 117.756 116.829C116.903 116.232 116.177 115.89 115.58 115.805C114.983 115.634 113.788 115.549 111.996 115.549C110.289 115.549 109.18 115.165 108.668 114.397C108.156 113.544 107.9 111.581 107.9 108.509V49.2448C107.9 47.2821 107.815 45.7888 107.644 44.7648C107.559 43.7408 107.175 42.5888 106.492 41.3088C105.212 39.0048 101.969 37.8528 96.764 37.8528C91.3027 37.8528 87.9747 39.0048 86.78 41.3088C86.1827 42.5888 85.7987 43.7408 85.628 44.7648ZM181.263 69.5968C175.034 69.5968 171.663 71.9861 171.151 76.7648C170.554 75.9115 169.786 75.0581 168.847 74.2048C167.908 73.2661 166.244 72.2848 163.855 71.2608C161.466 70.2368 158.82 69.7248 155.919 69.7248C148.324 69.7248 141.327 73.0955 134.927 79.8368C128.612 86.4928 125.455 94.3008 125.455 103.261C125.455 112.136 128.612 119.944 134.927 126.685C141.242 133.426 148.068 136.797 155.407 136.797C162.831 136.797 168.122 134.536 171.279 130.013C171.535 132.232 172.431 133.938 173.967 135.133C175.588 136.242 178.703 136.797 183.311 136.797C188.004 136.797 190.948 135.688 192.143 133.469C192.74 132.189 193.082 131.08 193.167 130.141C193.338 129.117 193.423 127.624 193.423 125.661V80.8608C193.423 78.8981 193.338 77.4475 193.167 76.5088C193.082 75.4848 192.698 74.3328 192.015 73.0528C191.418 71.7728 190.308 70.8768 188.687 70.3648C187.066 69.8528 184.591 69.5968 181.263 69.5968ZM151.183 111.069C148.964 108.765 147.855 106.205 147.855 103.389C147.855 100.573 148.879 97.9701 150.927 95.5808C153.06 93.1915 155.791 91.9968 159.119 91.9968C162.532 91.9968 165.22 93.1915 167.183 95.5808C169.231 97.9701 170.255 100.573 170.255 103.389C170.255 106.12 169.188 108.637 167.055 110.941C165.007 113.245 162.404 114.397 159.247 114.397C156.09 114.397 153.402 113.288 151.183 111.069ZM201.705 126.173C201.705 128.392 202.516 130.013 204.137 131.037C211.732 135.816 219.625 138.205 227.817 138.205C236.094 138.205 242.964 136.882 248.425 134.237C251.412 132.701 253.716 130.397 255.337 127.325C257.044 124.168 257.897 120.37 257.897 115.933C257.897 111.496 257.044 107.826 255.337 104.925C253.716 101.938 251.668 99.8475 249.193 98.6528C243.902 96.0075 238.441 94.3861 232.809 93.7888C227.006 93.0208 224.105 91.3568 224.105 88.7968C224.105 86.9195 226.622 85.9808 231.657 85.9808C234.9 85.9808 237.886 86.6208 240.617 87.9008C243.433 89.1808 245.353 89.8208 246.377 89.8208C248.34 89.8208 250.26 88.3275 252.137 85.3408C254.014 82.3541 254.953 79.8368 254.953 77.7888C254.953 75.7408 253.46 74.0341 250.473 72.6688C244.073 69.7675 237.844 68.3168 231.785 68.3168C213.268 68.3168 204.009 75.0581 204.009 88.5408C204.009 93.0635 204.82 96.9888 206.441 100.317C208.062 103.56 210.11 105.949 212.585 107.485C217.876 110.728 223.209 112.733 228.585 113.501C234.302 114.269 237.161 115.464 237.161 117.085C237.161 119.133 234.558 120.157 229.353 120.157C226.452 120.157 223.209 119.133 219.625 117.085C216.041 114.952 213.182 113.885 211.049 113.885C209.001 113.885 207.508 114.61 206.569 116.061C203.326 120.584 201.705 123.954 201.705 126.173ZM324.874 79.5808C319.242 73.0955 312.159 69.8528 303.626 69.8528C297.909 69.8528 292.917 72.4555 288.65 77.6608V49.3728C288.65 47.4101 288.565 45.9595 288.394 45.0208C288.309 43.9968 287.925 42.8448 287.242 41.5648C286.133 39.2608 282.89 38.1088 277.514 38.1088C272.053 38.1088 268.725 39.2608 267.53 41.5648C266.933 42.7595 266.549 43.8688 266.378 44.8928C266.293 45.8315 266.25 47.2821 266.25 49.2448V125.789C266.25 127.837 266.293 129.33 266.378 130.269C266.549 131.208 266.933 132.317 267.53 133.597C268.725 135.901 272.01 137.053 277.386 137.053C282.847 137.053 286.133 135.944 287.242 133.725C287.925 132.445 288.309 131.336 288.394 130.397C288.565 129.373 288.65 127.88 288.65 125.917V101.085C288.991 98.7808 290.314 96.7328 292.618 94.9408C294.922 93.0635 297.567 92.1248 300.554 92.1248C303.626 92.1248 306.143 93.1061 308.106 95.0688C310.069 97.0315 311.05 99.7621 311.05 103.261V125.661C311.05 127.709 311.093 129.245 311.178 130.269C311.349 131.293 311.775 132.445 312.458 133.725C313.738 135.944 316.981 137.053 322.186 137.053C327.647 137.053 330.933 135.944 332.042 133.725C332.725 132.445 333.109 131.336 333.194 130.397C333.365 129.373 333.45 127.88 333.45 125.917V103.389C333.45 94.0021 330.591 86.0661 324.874 79.5808ZM343.878 76.5088C343.793 77.4475 343.75 78.8981 343.75 80.8608V125.789C343.75 127.837 343.793 129.33 343.878 130.269C344.049 131.208 344.433 132.317 345.03 133.597C346.225 135.901 349.51 137.053 354.886 137.053C360.347 137.053 363.633 135.944 364.742 133.725C365.425 132.445 365.809 131.336 365.894 130.397C366.065 129.373 366.15 127.88 366.15 125.917V81.1168C366.15 79.4955 366.107 78.2581 366.022 77.4048C365.937 74.9301 365.169 73.0955 363.718 71.9008C362.011 70.4501 359.11 69.7248 355.014 69.7248C349.553 69.7248 346.225 70.8341 345.03 73.0528C344.433 74.3328 344.049 75.4848 343.878 76.5088Z" stroke="white" stroke-width="8" mask="url(#path-2-outside-1_233_12)"/>
</svg>
